<svg id="Layer_1" data-name="Layer 1" xmlns="http://www.w3.org/2000/svg" viewBox="0 0 250 250"><title>ARI</title><g id="ARZ"><path d="M249.29,197.89c-18.56-3.9-55.39-.1-76.39,44.33,0,0-35.92-42.87-85.83-50.4C89,168,57.43,161.63,51.38,120.6c0,0-24.56-20.1-36.83-51.76l6.54,2.1S11.54,60.37,4.2,42.15l6.91,2.29S4.12,35,.3,7.78C85,66,129.63,45.71,181.15,74.85c35,19.81,43.3,42.8,46.23,65.75C227.38,140.6,253.26,164,249.29,197.89Z" style="fill:#fff"/><path d="M245.75,192.94c.56-28.81-22.07-49.28-22.07-49.28-2.45-18.21-9.06-44.55-44.33-64C125.81,50.14,96.18,74.25,11.76,22.55c1.76,9.66,7.32,23,14.41,31.35L17.44,51c6.35,13.37,16.51,25.5,21.83,29.44L29.48,77.4c10.36,25.43,30.61,40.49,30.61,40.49,4.61,38.93,33.18,45.57,35.48,69.52,37.21,5.77,76.54,45.61,76.54,45.61C192.7,197.63,221.41,190.77,245.75,192.94Z"/><path d="M198.1,142.82c-8.09,13-21.77,9.4-26.65-6.84l9.86.6c-8.65-5.18-16.5-12.79-22.58-20.29-1.78,35.88,32,52,43.14,26.79A32.38,32.38,0,0,1,198.1,142.82Z" style="fill:#fff"/><path d="M174.87,84.54c-38.79-21.27-86.21-7.46-146.79-45,6,17.93,43.5,38.94,43.5,38.94L38.41,67.7c8.45,14.67,43,33,43,33l-30.94-10C63.32,112,92.4,126.4,92.4,126.4L74.53,125.1c2.31,20,30,37.25,31.43,52.7,12.51,4.78,28.63,13.11,41.19,23.92,24-11.81,17.4-51.76-28.4-108.42,63,3.81,61.25,50.5,97.41,43.79C213.51,124.54,211.8,104.79,174.87,84.54Z" style="fill:#b1063a"/><path d="M241.23,185.5c-2-14.82-15.32-32.1-24.87-38.15-4.48,9.16-15.4,15-25,17.71C213.88,167.76,232.41,176.73,241.23,185.5Z" style="fill:#ffc20e"/><path d="M198.1,142.82c-8.09,13-21.77,9.4-26.65-6.84l9.86.6c-8.65-5.18-16.5-12.79-22.58-20.29-1.78,35.88,32,52,43.14,26.79A32.38,32.38,0,0,1,198.1,142.82Z" style="fill:#fff"/><path d="M193,197.75c14.65-8.22,33.53-12.21,47.31-9.43-8.82-7.46-30.6-16.62-50.35-14.69C190,173.63,196.72,185.11,193,197.75Z" style="fill:#ffc20e"/></g></svg>