<svg id="Layer_1" data-name="Layer 1" xmlns="http://www.w3.org/2000/svg" viewBox="0 0 250 250"><title>ATL</title><g id="ATL"><path d="M232.48,58.5c-33.06-20.87-108.78-36.83-165.26-50L2.28,78.34,58,77.15C30.27,122,35.93,227.44,106.12,241.46c-3.61-6.93-9.89-19.65-1.75-35.41,5.79-11.21,38-72.81,38-72.81h7.71c10.44,0,13.87,3.93,9.24,9.46,27.83-.36,44.91-10.87,52.58-22.12-5.84-10.68-24.4-23.25-31.93-28.35h38.93c11.16,0,13.68,4.68,11.05,9.77C248.16,98.43,257.48,74.27,232.48,58.5Z" style="fill:#bbc4ca"/><path d="M228,60.63C183,35.37,71.52,18.54,71.52,18.54L23.76,69.7H73.28C36.72,118,44.82,215.52,98.59,235.79c-3.81-9.07-5.75-19.59,1.13-33,7.76-15.1,20.1-40.49,37.79-74.37h14.43c12,0,15.81,5.06,14.18,9,9.85,0,27.86-1,40.93-16.82-10.89-15.21-46.88-32.94-46.88-32.94h61.75c9.07,0,13.61,3.23,12.35,8.69C250,88.63,245.94,70.67,228,60.63Z" style="fill:#fff"/><path d="M155,89.31l1.14,3.37c-2.69,5.25-12.31,24.33-15.65,31h25c.34,4.42,4.73,8.18,9.29,9.17-2.7-3.61-1.63-7.19.39-9.17h11.8c3.28,0,2.27,3.94-3.06,8,8.34-1.91,14.58-5.7,18.65-11.13C194.75,108.78,155,89.31,155,89.31Z"/><path d="M226.17,64C188.3,43.25,68.37,25.67,68.37,25.67l4.35,5.53L44.92,61.14l97.78,7.48-.54,1.08H76.48l5.09,4.8A110.31,110.31,0,0,0,70.91,93.26L125.83,82l-.88,1.33-65.43,21.8,5.75,3.25A139.8,139.8,0,0,0,60,136l55.59-33.74c-.16.51-.32,1-.48,1.53l-61.3,48.37,5.65,1.42a132.2,132.2,0,0,0,4.35,30.2L113.68,125c.08.47.18.94.28,1.4L64.54,198.9l4.65.31c5.73,12.89,13.87,23.46,24.24,30-4-8.9-2.73-19.58,1.92-29.09,4-8.23,56.42-112.57,56.42-112.57L143,82.9h81.42c8.34,0,13,3.5,12.87,8.21C242.44,86.75,243.59,73.58,226.17,64Z"/><path d="M209.6,62.38c4.16,1.39,13.53,6.61,17.07,10.7h-6.73C217.29,68.72,209.6,62.38,209.6,62.38Zm20.87,9.14,1,4.62c-7.13,1.34-19.73,2.41-23.3,2.7l-.54,1.07h18.77c7.44,0,10.58,3.53,11.24,5.56C238.67,82.7,237.77,75.25,230.47,71.53Z" style="fill:#fff"/><path d="M200.16,67.56,70.38,49.6,78.32,41c43.71,6.75,96,17.43,122.54,25.16Zm-19.58,50.68L152.23,114l-2.87,5.56h30.55ZM68.15,164.35l36.11-40.28c0-.57,0-1.15-.06-1.72L67,154C67.23,157.48,67.63,160.95,68.15,164.35Zm43.38-15.55q-.39-.7-.76-1.4l-32.48,49a70.31,70.31,0,0,0,5.64,9ZM86.72,76.86q-2.64,3.63-4.93,7.53l39.12-7,1-1.34ZM68.83,120.18l40-21.84c.22-.54.44-1.08.67-1.63L71,110.54Q69.72,115.3,68.83,120.18Z" style="fill:#c9243f"/></g></svg>