<svg id="Layer_1" data-name="Layer 1" xmlns="http://www.w3.org/2000/svg" viewBox="0 0 250 250"><title>BUF</title><g id="BUF"><path d="M27.68,159.54c17.15-10.95,22.55-23.28,22.55-23.28l-48.57,7,20.64-36.65,41.47-3.49a158.34,158.34,0,0,1,41.11-24.72s2.61-4.55,16.87-12.75a164.32,164.32,0,0,1,28-12.64s10.1-3.47,13.08-3.65l-.87-3.21,19-1.63.49-1.83s9.94.67,15.64,3.2l1.12-1.5a62.31,62.31,0,0,1,23.2,21.13s9.6-.53,18.2,3.58a14.73,14.73,0,0,1,8.7,14.19,107.15,107.15,0,0,1-4.1,26.86,31.83,31.83,0,0,1-1.19,3.34,27,27,0,0,1-2.45,3.85s-4.51,4.65-6.26,8.74c0,0-.95,2.72-2.83,7.66,0,0-1.45,6.8-11.32,7.18,0,0-9.61,12.16-13.62,15.66l-.34-3a105,105,0,0,1-12.52,9.88l2-17.22s.48-3.07-1.47-3.29l-5-.12s1.65,10.36-.34,15.15c0,0-1.26,7.52-12.94,11.1a96.64,96.64,0,0,1-19.33,3.68l-2.22-.35-16.24,6.66,4.75-17s-6.09.62-6.61-.15l-18.08,7.75,7.11-20.37,4.87-2.7-1.55-2.11-10,.09-3.68,2.86a58.31,58.31,0,0,0-16.75-1.62l-42,34.11L45.58,203.21,33,186.4l3.94-5.15-1.5-1.12-5.7,4.49-8.44,22.73L8.88,189.8l3.2-7.13-.7-4.37c3.7-2.44,6.09-4.08,8-6.18a20.51,20.51,0,0,0,2.77-4c1.12-2.7,1.16-5.63,2.4-6.56C26.07,160.52,27.26,159.81,27.68,159.54Z" style="fill:#fff"/><path d="M24.65,110.25,8.58,138.57l207.35-30.9s-7.21-5.48,3.24-14.14Z" style="fill:#da2128"/><path d="M235.13,89.57s-16.19,11.07-10.58,20.62c0,0-5.88,3.26.62,7.84,0,0-10,4.52-7.38-7.88l-163,24.67s-3.49,14.76-26.6,28.74a4,4,0,0,0-1.85,2.85,8.34,8.34,0,0,1-1.94,5.11,27.62,27.62,0,0,1-8.65,8.41l.43,3-2.83,6.49,6.93,9.94,6.27-16.92L38.94,173S51.08,154,71,146.51c0,0,17.62-7.52,43.34-3.26l2.35-2.25,29.78-.66s1.12.26.37.86c0,0-5.87,4.51-12.29,5.09l.6,1.83s.18.64-.3.79l-6.24,2.48-4.13,11.43,11.71-5.09.65.49s10.19.63,25.51-2.47c0,0,10.63-2.1,13.59-15.87l20.23-.88s4.21.9,3.69,4.81l-1.45,11.47,9.25-8.24.64,2.16s7-7.59,8.81-11.94c0,0,7.7.15,9.59-3,0,0,.87-.87,3.33-7.65a22,22,0,0,1,5.91-9.44s3.68-3.45,5.73-12.5c0,0,2.47-13.12,2.45-15.61,0,0,2.65-13-6.24-16.8,0,0-6.61-3.65-19-2.63,0,0-2.47-8.61-19.52-20.41l-1.24,1.85a26.44,26.44,0,0,0-14.08-3.92l-.42,1.14s-5,0-15.95,1.11l1,3s-22.55,1-54.53,22.46l-.58,1.75-4.07,1.92,2.17,1.19s-24.44,8.83-42.22,23.38Z" style="fill:#005496"/><path d="M178,142.44l7-.08s1.4,9.23.57,13.35a12.85,12.85,0,0,1-7.63,8.52,77.17,77.17,0,0,1-23,4.78l-.67-.57-10.47,4.41,3.44-12.17s14-1.08,18.27-2.35C165.5,158.33,176.38,156.19,178,142.44Z" style="fill:#005496"/><path d="M91.83,146.05S67,145.76,50,165.78c0,0,0,7.27-8.86,12.19l.33,2.29L37.29,186l7.43,10,8.37-18.54Z" style="fill:#005496"/></g></svg>