<svg id="Layer_1" data-name="Layer 1" xmlns="http://www.w3.org/2000/svg" viewBox="0 0 250 250"><title>CIN</title><g id="CIN"><path d="M224.55,122.13a1.41,1.41,0,0,1-.2-2.58c11.26-8.34,18.85-19,18.85-35.56,0-19.56-14-47-68.68-47h-141L1.61,92.6H25.06a4.73,4.73,0,0,1,4.73,4.73v55.53a4.73,4.73,0,0,1-4.73,4.73H-.08L32.18,213l149,0c48.09,0,68.89-25.09,68.89-52C250.08,143.15,237.42,128.69,224.55,122.13Z" style="fill:#fff"/><path d="M207.15,123.39a1.54,1.54,0,0,1-.18-2.95c15.29-5.79,24.21-16.08,24.21-34.24.22-24.34-21.3-41.07-56.28-41.07H42.32L19.06,86.22h16a5.72,5.72,0,0,1,5.72,5.72v66.31A5.72,5.72,0,0,1,35.07,164H19.23l23.44,40.89,138.53,0c39.56,0,55.85-26.29,55.85-45.63C237,142.22,224.52,127.54,207.15,123.39ZM141.05,164H122.14a4.25,4.25,0,0,1-4.25-4.25V137.49h23.16c11.09,0,15.21,5.44,15.21,13C156.26,158.35,152.14,164,141.05,164Zm0-51.28H117.89V90.42a4.26,4.26,0,0,1,4.25-4.22h18.91c11.09,0,15.21,5.66,15.21,13C156.26,107.07,152.14,112.71,141.05,112.71Z" style="fill:#f04e23"/><path d="M156.19,45.13a360.43,360.43,0,0,0-12.94,41.15c-.7-.05-1.43-.08-2.19-.08H122.14a4.26,4.26,0,0,0-4.25,4.22v22.29h19.88c-1.31,8-2.37,16.27-3.08,24.77h-16.8v22.26a4.25,4.25,0,0,0,4.25,4.25h11.61a247.08,247.08,0,0,0,3.86,40.85H120.33C106.7,171.92,87.94,116.22,106.6,45.13h49.59Zm47.17,4.57C175.22,91.43,160,144.61,166.82,193.05A181.54,181.54,0,0,1,231.14,87.41c0-.4,0-.79,0-1.21C231.33,69.42,221.15,56.26,203.35,49.7ZM87.43,193.26c-24.58-46.21-31-99.33-21.89-148.13H42.32L19.06,86.22h16a5.72,5.72,0,0,1,5.72,5.72v50.88C52.72,162.19,70,180.73,87.43,193.26Z"/></g></svg>