<svg id="Layer_1" data-name="Layer 1" xmlns="http://www.w3.org/2000/svg" viewBox="0 0 250 250"><title>DAL</title><g id="DAL"><polygon points="249.49 97.28 155.08 97.28 125 7.32 94.92 97.28 0.51 97.28 77.86 152.67 48.17 242.68 125 187.78 201.84 242.57 172.13 152.67 249.49 97.28" style="fill:#fff"/><polygon points="125 18.03 97.34 100.64 10.96 100.64 81.82 151.38 54.57 233.99 125.02 183.66 195.44 233.99 168.17 151.38 239.04 100.64 152.66 100.64 125 18.03" style="fill:#002a5c"/><polygon points="125 40.8 102.76 107.71 32.79 107.71 90.19 148.81 68.11 215.72 125.17 174.96 181.88 215.72 159.81 148.81 217.22 107.71 147.24 107.71 125 40.8" style="fill:#fff"/><polygon points="125 60.48 107.52 113.33 52.24 113.33 97.59 145.8 80.15 198.66 125.23 166.47 169.85 198.66 152.41 145.81 197.75 113.33 142.48 113.33 125 60.48" style="fill:#002a5c"/></g></svg>