<svg id="Layer_1" data-name="Layer 1" xmlns="http://www.w3.org/2000/svg" viewBox="0 0 250 250"><title>DEN</title><g id="DEN"><path d="M126.63,196a2.05,2.05,0,0,1-.35,1,1.77,1.77,0,0,1-1,.46,1.94,1.94,0,0,1-1.62-.35A1.55,1.55,0,0,1,123,196h0v0h0l-4.33-14.1c-2.43-7.23-6.09-15-13.21-21.85-8.59-8.29-21.26-14-38.73-17.52-15.22-3.05-25.25-5.67-32.49-8.5a48.94,48.94,0,0,1-15.08-8.94C8.94,116.42,1.8,105.36,1.34,91.42c0,0,10.19,14.4,21.4,7.53,5.3-3.25,9.1-2.79,9.1-2.79A26.28,26.28,0,0,1,25.17,82a39.85,39.85,0,0,1,1-14.25,37.68,37.68,0,0,1,8.31-15.24s-2.42,21,7.62,28.44A19.4,19.4,0,0,0,54.7,83s-8.34-3.86-9.5-16.25a38.58,38.58,0,0,1,.51-10.83s11,15.54,22,9.16c2.46-1.43,15.48-8.15,21.09-9.64A48.94,48.94,0,0,1,113,55a54.43,54.43,0,0,1,18.89,8.85,80.93,80.93,0,0,1,20.18,21.58s21.61-1,33.44,14.16l0,0,27.35,12.07-3.1,2-.13.09.14.09c8.85,5.63,24.34,15.6,28.56,19.19h0l7.84,3.73-1.43,3.79h0c-.09.26-2.22,6.34,1.79,9.35l2,1.51,0,0,0,0-6.16,16.32-1.56-2.1c-8.59-11.84-16.71-14-20.8-14.11-4.62-.1-4.94,2.36-4.37,3.42,1.86,3.43,12.21,5.21,16,5.6l2.61.34-10,8.94-18.08-1.14h-.07v-.07l.3-3.55h0c-.09-.67-1.31-6.74-16.1-12.82h0l0,0a39.36,39.36,0,0,1-14,3.5,32.64,32.64,0,0,1-21-6.11l0,0h-.05A52.91,52.91,0,0,0,142.76,156c-9.29,6.38-14.36,14.73-15.06,24.82,0,0-.81,8.31-1.07,15.21" style="fill:#001f53"/><path d="M67.68,84.84c-13,4-22.15,3.93-28.09-.14-5.06-3.47-8.12-9.63-8.4-20.13-3.9,12.17-2,21.82,3.63,28.29C39.31,98,47,101.4,55.28,102a167.71,167.71,0,0,1,50.81-14.43C101.44,79.62,87.81,78.66,67.68,84.84Z" style="fill:#f15623"/><path d="M130.26,68.36a50.87,50.87,0,0,0-17.64-8.73A43.86,43.86,0,0,0,90,59.86c-5,1.34-16.23,6.87-20.45,9C58.46,74.65,51.3,67.22,48.6,64.42l-.12-.12a30.4,30.4,0,0,0,2,7.12,15.62,15.62,0,0,0,6.59,7.72c5.09,2.84,12.17,2.44,21-1.2,9.88-4.05,18.17-5.29,24.64-3.68,5.83,1.45,11.19,6.09,14.35,12.43A144.07,144.07,0,0,1,149,88.94,80,80,0,0,0,130.26,68.36Z" style="fill:#f15623"/><path d="M239.65,144.33a17.42,17.42,0,0,1,.89-5.27l-4.66-2.18h0v0c-2.88-3.12-34.07-22.73-34.38-22.93l-.12-.07.12-.07,2.3-1.54-21.13-9h0l0,0C174,90.44,157.11,89.92,153.86,89.95c6.44,2,8.41,3.95,8.9,5.25a1.67,1.67,0,0,1,0,1.44l0,.06-.06,0C89.73,76.8,30.07,122.54,27.57,124.49c2.86,2.89,9.3,6.78,32.43,11.92,5.16-4,29.77-21.53,66.91-20.5l-6-9.1s23,6,36.14,13.28a20.7,20.7,0,0,0,34,17.86l16.5,10.53-15.83-6.15a26.94,26.94,0,0,1-42.62-19.27c-35.64-9-61.92,13.59-67.17,18.55a90.5,90.5,0,0,1,11.71,4.57,63.92,63.92,0,0,1,11.65,7.11c2.64-3.22,13.16-14.28,33.34-14.45,0,0-19.81,5.13-26.13,21.27,5.61,6.5,8.5,13.37,10.72,19.93a34.71,34.71,0,0,1,5.95-17,42.13,42.13,0,0,1,11.26-11,55.5,55.5,0,0,1,15.78-7.37h0l0,0c16.06,12.94,33.73,2.75,33.91,2.65l0,0h0a58.17,58.17,0,0,1,12.4,6.29,25.53,25.53,0,0,1,6.16,5.78c2.26,3.11,2.33,5.35,2.31,5.82l12,.79,3.51-3c-10.88-1.41-14.18-4.79-14.85-7.69-1.17-7,6-7.85,9.22-7.43,7.58,1,16.8,7.78,20.27,12.51l2.57-6.9A11,11,0,0,1,239.65,144.33Z" style="fill:#fff"/><path d="M8,102.57s4.68,24.16,39.41,4.2c-9.61-3-11.58-9.55-23.08-3.65C14.11,108.37,8,102.57,8,102.57Z" style="fill:#f15623"/><path d="M197.42,116.27a2.71,2.71,0,1,1-4.54-2.38c-8-3.93-12.19-4.53-12.19-4.53,9.7,6.44,13.84,11.81,13.84,11.81l2.62-1.79,24.52,13.68A167.17,167.17,0,0,0,197.42,116.27Z" style="fill:#001f53"/><path d="M192,115.66a2.71,2.71,0,0,0,5.39.61l-1.14-.62-2.68,2,.74-3-1.47-.74A2.73,2.73,0,0,0,192,115.66Z" style="fill:#f15623"/><path d="M193.61,117.61l2.68-2c-.66-.36-1.31-.7-1.93-1Z" style="fill:#001f53"/><path d="M236.2,139.63c-5.77,2.31,1.66,8.93,1.66,8.93C221.69,135.79,236.2,139.63,236.2,139.63Z" style="fill:#001f53"/><path d="M165.83,97.93c10.46.21.08-4.22.08-4.22a18.65,18.65,0,0,1,11.91,8.14A108.11,108.11,0,0,0,165.83,97.93Z" style="fill:#001f53"/></g></svg>