<?xml version="1.0" encoding="utf-8"?>
<!-- Generator: Adobe Illustrator 20.1.0, SVG Export Plug-In . SVG Version: 6.00 Build 0)  -->
<svg version="1.1" id="Layer_1" xmlns="http://www.w3.org/2000/svg" xmlns:xlink="http://www.w3.org/1999/xlink" x="0px" y="0px"
	 viewBox="0 0 434.333 434.333" style="enable-background:new 0 0 434.333 434.333;" xml:space="preserve">
<g>
	<path style="fill:#231F20;" d="M217.167,0.5C97.505,0.5,0.5,97.505,0.5,217.167s97.005,216.667,216.667,216.667
		s216.667-97.005,216.667-216.667S336.829,0.5,217.167,0.5z M311.949,236.408h-82.282v126.198c0,6.903-5.597,12.5-12.5,12.5
		s-12.5-5.597-12.5-12.5V236.408h-82.283V66.662c0-6.903,5.597-12.5,12.5-12.5c6.904,0,12.5,5.597,12.5,12.5v144.746h139.565V66.662
		c0-6.903,5.597-12.5,12.5-12.5s12.5,5.597,12.5,12.5V236.408z"/>
</g>
</svg>
