<svg id="Layer_1" data-name="Layer 1" xmlns="http://www.w3.org/2000/svg" viewBox="0 0 250 250"><title>GB</title><g id="GB"><path d="M124.34,42.94C56.94,42.94,0,80.72,0,125.43,0,172,53.46,207.06,124.34,207.06c41.37,0,80.59-14.54,104.92-38.89,13.39-13.4,20.76-28.59,20.74-42.75,0-22-13-42.75-36.52-58.31S158.24,42.94,124.34,42.94Z" style="fill:#ffc20e"/><path d="M37.39,180.09C15.76,165.67,3.85,146.25,3.85,125.43c0-41.89,56.3-78.63,120.48-78.64,67.13,0,121.77,35.27,121.81,78.64,0,13.14-7,27.35-19.62,40-23.62,23.64-61.82,37.76-102.19,37.76C90.61,203.21,59.73,195,37.39,180.09Z" style="fill:#2a433a"/><path d="M178.27,103.82c-9.68-14.42-30.87-24.41-55.83-24.41-34.25,0-62,18.84-62,42.08s19.6,43.64,62,43.62c25.48,0,46-11,55.53-25.47l-72.36.13-.22-18.8,125.61,0a40.08,40.08,0,0,1,.34,4.5c0,36.18-47.9,65.51-107,65.51s-107-29.33-107-65.51,50.75-66.62,107-66.83c46.82-.18,86.61,19.17,101.13,45.2Z" style="fill:#fff"/></g></svg>