<svg id="Layer_1" data-name="Layer 1" xmlns="http://www.w3.org/2000/svg" viewBox="0 0 250 250"><title>HOU</title><g id="HOU"><path d="M184,50.39c53.08,40.4,12.69,46.44-28.77,52.34,0,0-17.49-4.82-47.8-19.88-68.74-34.14-47.1-50.23,6.92-60-86.47-37.67-158.54,27.92-79,91.7L13.5,130.17c17.92,11,55.05,34,49.66,69.32L44.73,212.67,101,238.17,145.42,218c.32-19.54,35.25-29.7,50.28-69.46C278.44,129.61,257.37,56.83,184,50.39Z" style="fill:#fff"/><path d="M146.17,106.46c-103.86-40.11-110.74-73-45.91-84.4C19.19,0-28.1,58.79,52.12,114.83L30.59,130.21c22.86,15.27,47.08,37.89,38.86,73.48l-10.84,7.74,41.65,18.88C139,187.86,159.31,146.6,146.17,106.46ZM120,171.05l-16-18.15-18.32,2.73,8.47-13.95-16-18.16,21.19,9.54,8.45-14,4.62,19.84,21.19,9.52-18.33,2.74Z" style="fill:#00143f"/><path d="M198.9,56.71c35.65,27.91,10.9,45.73-32.56,50.58,11,46.34-22.72,88.79-58.4,121.66l32.72-14.83c2.42-18.83,35.62-28.63,51.35-70.43C265.9,127.21,253.84,74.18,198.9,56.71Z" style="fill:#c41230"/></g></svg>