<svg id="Layer_1" data-name="Layer 1" xmlns="http://www.w3.org/2000/svg" viewBox="0 0 250 250"><title>IND</title><g id="IND"><path d="M125,250c-24.07.11-42.53-6.77-51.36-11.43a125.13,125.13,0,0,1-43.84-37.8C12.15,176.8,8.74,157.53,7.33,147a113.55,113.55,0,0,1,0-30.37c2.08-17,5.95-25.46,8.71-33.75A197.69,197.69,0,0,1,29.27,56.34c3.5-5.09,9.88-14.48,12.48-17.79.71-1-.21-.55-.6-.54a6,6,0,0,1-2.19.24,10.09,10.09,0,0,1-2.27-.37A10.31,10.31,0,0,1,29,26.7c-.12-1.48,1.47-14.11,2.7-18C33.26,3.14,36.58.56,42.47.07c2.94,0,15.34-.25,21,.63C74.71,1.82,83,5.1,87.87,15c3.93,8.71,2.58,22.34-2.82,32.77A122.81,122.81,0,0,1,76.34,62.3a101.6,101.6,0,0,0-6.75,11.29c-2.58,5-11.17,23.81-14.11,36.08-5.6,22.9-2.45,36.08,8.35,54,8,11.9,17.3,20.5,24.54,24.42,11.91,7.49,28.17,9.57,36.64,9.57s24.73-2.09,36.63-9.57c7.24-3.93,16.57-12.52,24.54-24.42,10.8-17.92,13.95-31.1,8.35-54-2.95-12.27-11.54-31-14.11-36.08a101.24,101.24,0,0,0-6.75-11.29,122.88,122.88,0,0,1-8.71-14.49c-5.4-10.43-6.75-24.06-2.82-32.77C167,5.1,175.29,1.82,186.56.71c5.63-.88,18-.63,21-.63,5.89.49,9.2,3.07,10.8,8.59,1.23,3.93,2.82,16.57,2.7,18a10.32,10.32,0,0,1-7.74,11.17,10.06,10.06,0,0,1-2.27.37,6,6,0,0,1-2.18-.24c-.39,0-1.31-.5-.6.54,2.6,3.31,9,12.7,12.48,17.79a197.75,197.75,0,0,1,13.2,26.57c2.76,8.28,6.62,16.75,8.71,33.75a113.4,113.4,0,0,1,0,30.38c-1.41,10.49-4.82,29.76-22.47,53.69a125.13,125.13,0,0,1-43.84,37.8C167.52,243.19,149.07,249.84,125,250Z" style="fill:#fff"/><path d="M71.18,230.42c-15.71-9.32-29.95-21.1-43.69-43.78-6.14-11.2-20.37-35-13.35-76.49,8.1-37.92,24.4-57.07,33.72-70.2,4.42-6.38-.12-10.06-3.68-8.71a17.42,17.42,0,0,1-5,1.2c-5.28-.72-4.54-4.15-3.56-13.11L36.82,12c1.1-6.5,4-6.39,11.78-6.24,12.27.24,14.48.34,21.11,1.57,8.84,2,20.37,10.8,11.29,35.1-5.64,13-11.53,17.43-17.92,30.93-6.87,15-23.56,48.6-12.27,77.32,15.47,38.54,45.41,52.28,73.88,52.77,28.47-.37,61.36-17.18,74.52-52.77,11.29-28.72-5.4-62.34-12.27-77.32-6.38-13.5-12.27-17.92-17.92-30.93-9.08-24.3,2.46-33.13,11.29-35.1,6.62-1.23,8.83-1.33,21.11-1.57,7.73-.15,10.68-.27,11.78,6.24l1.23,7.36c1,9,1.72,12.4-3.56,13.11a17.42,17.42,0,0,1-5-1.2c-3.55-1.35-8.1,2.33-3.68,8.71,9.33,13.13,25.63,32.28,33.72,70.2,7,41.48-7.22,65.29-13.35,76.49-13.74,22.68-28,34.46-43.69,43.78-21.5,15-61.76,14.12-54,13.63C132.91,244.67,95.24,245.64,71.18,230.42Zm117-188.89a2.89,2.89,0,1,0-2.89,2.89A2.89,2.89,0,0,0,188.23,41.54Zm33.87,78.55a2.89,2.89,0,1,0-2.89,2.89A2.89,2.89,0,0,0,222.1,120.08Zm-17.18,66.76a2.89,2.89,0,1,0-2.89,2.89A2.89,2.89,0,0,0,204.92,186.84ZM64.68,44.43a2.89,2.89,0,1,0-2.89-2.89A2.89,2.89,0,0,0,64.68,44.43ZM30.81,123a2.89,2.89,0,1,0-2.89-2.89A2.89,2.89,0,0,0,30.81,123ZM48,189.73a2.89,2.89,0,1,0-2.89-2.89A2.89,2.89,0,0,0,48,189.73Zm76.87,36.57a2.89,2.89,0,1,0-2.89-2.89A2.89,2.89,0,0,0,124.86,226.3Z" style="fill:#00427e"/></g></svg>