<svg id="Layer_1" data-name="Layer 1" xmlns="http://www.w3.org/2000/svg" viewBox="0 0 250 250"><title>LA</title><g id="STL"><path d="M171.82,36.75c-18.4,2.31-34.25,11-44.61,24.48-.81,1-1.57,2.17-2.32,3.31l-.35.07C65.77,73.76,19.18,112,17.23,113.65l-16.86,14,21.85,1.76C60.72,132.51,88,146,104.06,156.74c17.62,11.78,26.1,23,26.18,23.09l3.27,4.45,2.42,3.29,7.31-6.28a23.07,23.07,0,0,0,3.38-3.62l.25.22,1.65,1.38a23.28,23.28,0,0,1,3.11,2.9,5.12,5.12,0,0,1,.44,2.1,7.42,7.42,0,0,1-.76,3.76l-.26.59c-.62,1.5-1.81,3.67-1.82,3.69l-1.79,3.28L180,213.87l3.35-.93,6-1.54c7.39-1.84,12.09-3.06,14.85-4.38l2.42-1.16,1.38-2.3a134.6,134.6,0,0,0,14.17-37.91l6.12-5.56.14-1.46.19-2c.17-1.78.25-3.59.25-5.38a67.55,67.55,0,0,0-.79-10c10.67-5.93,15.28-14.51,18.11-21.49a49.92,49.92,0,0,0,3.46-18.7,61.6,61.6,0,0,0-3.37-19.89c-3.63-10.61-11.88-25.58-30.57-36.62h0C204.07,37.67,187.67,34.76,171.82,36.75Z" style="fill:#fff"/><path d="M150.27,169l.38.33,0-.11Z" style="fill:#002a5c"/><path d="M205.35,115.37l-.54.55.33-.31Z" style="fill:#002a5c"/><path d="M213.78,47.8c-20.84-12.31-61.93-12.4-83.57,15.73a49.15,49.15,0,0,0-3,4.42c-.93.19-1.64.32-2.05.39-57.7,9-103.57,46.62-105.5,48.22l-9.72,8.07,12.59,1c76.27,6.14,110.42,51.47,110.76,51.93l3.29,4.47,4.21-3.61a20.51,20.51,0,0,0,5-6.58c1,.94,2.19,2,3.59,3.2a38.49,38.49,0,0,1,5.51,5.07,8.73,8.73,0,0,1,1,4.15,11.72,11.72,0,0,1-1.31,5.81c-.71,1.71-2,4-2,4l27.9,15.67,1.89-.52,6.06-1.56c7-1.74,11.73-3,14.15-4.13l1.39-.67.8-1.33a131.3,131.3,0,0,0,14-37.94l5.95-5.41.19-2q.23-2.54.23-5a64.87,64.87,0,0,0-1.19-12.11c11.06-5.23,15.76-13.34,18.79-20.82C250.72,98.49,244.31,65.83,213.78,47.8Z" style="fill:#c6a876"/><path d="M235.46,79.54c-17.66-42.67-66.14-34.15-66.14-34.15l.38,0A72.93,72.93,0,0,1,201,50.27c12.64,5.22,26.75,18.21,30.17,35.38a57.61,57.61,0,0,1,1.13,11.28v.86a47.39,47.39,0,0,1-4.4,19.81,30.34,30.34,0,0,1-7.37,9.11,9.36,9.36,0,0,1-5.29,2.1,4.09,4.09,0,0,1-.76-.07h0a2.94,2.94,0,0,1-.68-.2c-1.34-.61-1.79-2.21-4.85-6.51a63.35,63.35,0,0,0-4.6-5.61c.25-.23.48-.46.71-.7h0l.34-.35a11.61,11.61,0,0,0,.8-1,14.56,14.56,0,0,0,1.88-3.52c0-.05,0-.1.05-.15.16-.43.3-.86.43-1.31,2.48-8.84-.25-22.52-11.38-31.43-11.84-9.48-24.62-10.26-35-6.11-17.44,7-28,28-15.53,45.14,6,8.32,15.85,8.86,21.94,4.19,5.71-4.38,9.54-17.78-4.51-25,11.29-1,25,12.51,18.24,29.89a24.9,24.9,0,0,1-1.73,3.56c-9.77,16.48-36.45,14.65-49.27-.67-12.5-14.93-14.62-34.94-8.62-51.6.44-1.22.92-2.41,1.44-3.59C72.58,85,39.24,116.13,39.24,116.13c72.06,15,98.18,58.4,98.18,58.4a17.31,17.31,0,0,0,4.93-7.91,21.36,21.36,0,0,1-2.81-15.85,32.71,32.71,0,0,0,5.12,12.45,70.71,70.71,0,0,0,5.61,5.78l.36.22,0,.11c3.61,3.2,7.9,6.8,8.66,8.17,3.88,7-.17,14.89-.17,14.89l21.81,11.94c4.86-1.38,16.24-3.86,19.38-5.37A126.41,126.41,0,0,0,214,161l5.72-5.2c.07-.76.12-1.52.15-2.28,0-.26,0-.52,0-.78,0-.49,0-1,0-1.48,0-.32,0-.64,0-1s0-.84,0-1.25,0-.71-.05-1.06,0-.63-.07-.94c-.13-1.64-.32-3.27-.57-4.84a.92.92,0,0,1,0-.18c-.1-.6-.2-1.2-.31-1.79-.23-1.2-.47-2.39-.75-3.53a14.56,14.56,0,0,0,1.41-.41,20.33,20.33,0,0,0,3.41-1.51C235.27,127.93,246.63,106.53,235.46,79.54Z" style="fill:#002a5c"/><path d="M232.25,96.94a57.54,57.54,0,0,0-1.13-11.28C227.7,68.48,213.59,55.49,201,50.27a72.93,72.93,0,0,0-31.25-4.92l-1.76.23c-19.62,2.78-31.54,16.79-31.54,16.79,17.75-13.89,44.4-15.52,62-8.29S228.87,76,232.25,97.8c0-.07,0-.13,0-.2C232.25,97.39,232.25,97.17,232.25,96.94Z" style="fill:#fff"/><path d="M175,182.58c.18-.88,2.72-1.06,2.72-1.06a14.52,14.52,0,0,1-1.16,11C176.41,189.68,176.92,184.33,175,182.58Z" style="fill:#fff"/><path d="M131.29,129c-12.5-14.93-14.62-34.94-8.62-51.6-3.58,5.52-11.81,21.89-1.63,44.43,12.35,27.34,46.15,28.42,57.51,11.31a32.76,32.76,0,0,0,2-3.48C170.79,146.15,144.11,144.33,131.29,129Z" style="fill:#fff"/><path d="M196.13,153.88a4.08,4.08,0,0,1,4.09-4.08l.21,0a17.29,17.29,0,0,0-3.39-7.16,16.84,16.84,0,0,1-.37,4.48,6.55,6.55,0,0,0,3.06,12.35,11.89,11.89,0,0,0,.5-1.53h0A4.09,4.09,0,0,1,196.13,153.88Z" style="fill:#fff"/><path d="M200.67,155.67c0,.1-.08.21-.13.31a2.21,2.21,0,0,1-2.77-1.27,2.45,2.45,0,0,0,3-.35l.09-.09A3.49,3.49,0,0,1,200.67,155.67Z" style="fill:#002a5c"/><path d="M200.87,154.28l-.09.09a2.45,2.45,0,0,1-3,.35,2.21,2.21,0,0,0,2.77,1.27c.05-.1.09-.21.13-.31A3.52,3.52,0,0,0,200.87,154.28Z" style="fill:#fff"/><path d="M213.49,153.2c.51-20.72-16.79-34.5-16.79-34.5s12.68,15.81,11.21,34.4l-3.45,3.21a58.25,58.25,0,0,1-5.07,25.36c-5.06-9.15-16.23-15.21-20.83-16.3-3.13,1.77-10.08,5.59-14.13,10.07a16.6,16.6,0,0,1,1.85,4.47,23.72,23.72,0,0,1-.56,11.46s7.74,4.32,7.63,4.11c2.11-7.31-.7-10.61-2.85-14.37a98.12,98.12,0,0,1,9.2-4.94c2.29,3.16,3.47,8.37,1,15.79-.74,2.22-1.81,4.49-2.45,6a26.08,26.08,0,0,0,3,1.59,11.92,11.92,0,0,0,8.86-7.21,5.08,5.08,0,0,0,.1-2.85,8,8,0,0,1-1.54,1.7c-1-2.33-1-4.17.25-5.56a3,3,0,0,1,2.27-1,2.88,2.88,0,0,1,2.75,1.79c1.94,4.76-2.56,9.77-2.56,9.77s4.31-.19,5.55-.8c2.53-5.12,10.38-21.81,12.61-38.67Z" style="fill:#fff"/></g></svg>