<svg id="Layer_1" data-name="Layer 1" xmlns="http://www.w3.org/2000/svg" viewBox="0 0 250 250"><title>MIA</title><g id="MIA"><path d="M215.49,76.5a52.45,52.45,0,0,1-8.46.6,18.82,18.82,0,0,0-9,1.57A14.83,14.83,0,0,0,192,84.1a4.39,4.39,0,0,1,.8-.92s3.12-3.59,9.48-3.12a1.28,1.28,0,0,0-.19,1.23v0a1.07,1.07,0,0,0,.11.18h0l0,0s2.28-.73,3.89-1.22a55,55,0,0,0,8-2.43c3.23-1.32,4.26-1.91,4.15-2.16S217.36,76,215.49,76.5Z" style="fill:#005778"/><path d="M192.75,83.19a4.42,4.42,0,0,0-.8.92,40.92,40.92,0,0,0-2.56,4.53c2.12-3.14,8.81-5.8,12.76-7.14a1.07,1.07,0,0,1-.11-.18v0a1.28,1.28,0,0,1,.19-1.23C195.87,79.59,192.75,83.19,192.75,83.19Z" style="fill:#fff"/><path d="M199.14,157.4c-1.35,2.74,2.16,11.23,5.38,13.75-2.35-.71-14.65-4.2-16.62.35-2.17,5,9.85,23.35,11.21,26.77-5.54-5.5-20.71-17.82-22.86-16.41s-1.62,8.27-1.06,11.77c-2.08-2.54-5.66-6.61-8.75-5.39s-2.71,13-2.91,18c-2.55-5.91-6.71-17.8-10.56-17.37s-8.17,8.53-9,11.62c-.59-3.1-3.11-9.91-6.92-9.91s-12.68,18-15.36,23.88c0-4.53,1.07-26.64-1.33-27.74s-10.51,3.94-12.25,6.24c.64-2.9,1.19-12.72-1-13.91s-8.33-1.56-19.48,8.75c1.85-4,4.9-8.26,5.64-12.43a97.94,97.94,0,0,0,13.8-1.66A61.12,61.12,0,0,0,204,124.19a62,62,0,0,0-.49-7.8c2.26-2.13,4.44-4.2,6.46-6.12a9.8,9.8,0,0,0-.68,4.09c.13,5.15,13.48,6.25,20.58,6.83-7.92,1.07-21.77,6.81-19.14,9.89s10.3,7.3,11.39,7.84c-3.66,0-15.67,1.24-17,4.65s17.39,14.82,24.25,17.51C220.84,158.66,200.49,154.65,199.14,157.4Z" style="fill:#f58220"/><path d="M188.79,69.55a78.74,78.74,0,0,0-12.38,3.52,61.14,61.14,0,0,0-90.17,74.1A58.07,58.07,0,0,1,76,153.36c2.5-3,4.66-8.69,1.84-10.21-1.93-1-10.88-1.46-10.88-1.46s10.08-6.78,9.85-11.68-16.32-7.41-22.68-8.82c5.61-1.18,23.78-5.29,24.56-8.94S73,106,70.32,104.73c3,0,10.76,1.33,11.8-2.43C83.3,98,64.31,86.74,60,85.18c1,.23,19.06,4.45,25.67,3,4.92-1.07-.82-7.69-1.76-8.47,1.45.71,9.75,2.42,12.12-1.52S90.33,58.58,85.82,51.94c4,4,22.29,17,25,14.79s.64-9.36-.82-11.72c2.95,2.76,5.85,6.45,9.59,6.37,1.88,0,4.24-6.24,4.62-20.25,2.54,7.85,8.6,18.53,13,17.88s6-7.26,6.59-10.07c.51,3,2.85,10.79,5.82,11.07,3.65.57,10.62-15.65,13.16-23,.38,3.62-2.27,22.21,1.66,23.76s10.42-6.28,14.1-10.67c-2.23,4.24-6.6,14.51-4,17s11.6-.12,15.1-3A9.18,9.18,0,0,0,188.79,69.55Z" style="fill:#f58220"/><path d="M236.77,69.27c-4.66.46-14,3.83-14,3.83-17.06-4.43-37.3-4.93-62.13,10.18A150.94,150.94,0,0,0,147.85,92c-3.91,3-7.51,6-10.87,9-1.45,1.31-3.31,3-4.91,4.6-8.06,2.69-11.64.17-22.71,1.63-8.76,1.15-12.17,4.14-14.1,6.49a1.35,1.35,0,0,0,.23,1.63c1,.84,2.66.42,5.73.19s7.71-.15,10.78,1.76c2,1.23,2.87,4.2,3.2,5.84-2.3,2.43-4.55,4.79-6.82,7-14,13.84-23.4,22.09-33.94,26.21-22.86,8.95-35.74-1.56-40.9-4.66h0c-6.26-4-14.56-5.34-19-6.18a15.9,15.9,0,0,1-7.84-3.8C5.73,141,5,139.64,3.92,140a1.61,1.61,0,0,0-.69.33,1.68,1.68,0,0,1,.69-.32c.17,1.93,6.65,18.06,27.25,21,5.89.84,7.76.57,8.86.49a50.44,50.44,0,0,1-6.56-7.54c.79.68,1.57,1.33,2.36,2a33.09,33.09,0,0,0,19,10.25c.38.12,6.18.37,6.18.37,6.76-.14,15.83-2.13,24.24-4.57,24.71-7.17,48.56-28.59,48.56-28.59s-1.32,5.77-1.84,7.82a79.77,79.77,0,0,1-3.83,12.69s-.68,1.71-1.68,3.8c-1.47,3.09-3.53,7-3.53,8.61a1.18,1.18,0,0,0,0,.21,2.23,2.23,0,0,0,.09.41,43.8,43.8,0,0,0,7.26-5.12,128.21,128.21,0,0,0,16.8-17.6c14.83-18.29,17.19-30.82,27.61-40.56,4.41-4.13,16-10.51,22-12.58l.13-.06h0a234.07,234.07,0,0,1,21.46-10.81c5.87-2.36,26.53-9.22,28.71-5.81h0C246.07,70.37,241.36,68.81,236.77,69.27Zm-22.65,8.62a54.64,54.64,0,0,1-8,2.43c-1.61.49-3.9,1.22-3.9,1.22l0,0c-4,1.35-10.63,4-12.76,7.14A40.25,40.25,0,0,1,192,84.1a14.79,14.79,0,0,1,6-5.43,18.84,18.84,0,0,1,9-1.57,52.47,52.47,0,0,0,8.46-.59c1.88-.45,2.67-1,2.78-.78S217.34,76.56,214.12,77.88Z" style="fill:#008e97"/><path d="M132,141.13a79.77,79.77,0,0,1-3.83,12.69,149.27,149.27,0,0,1-32.67,12.52c-23,5.39-37.73.71-40.25-.11l-.36-.12c.56.12,6.15.36,6.15.36a94.47,94.47,0,0,0,34.15-5.83C109.25,155.5,123.11,147.1,132,141.13Z" style="fill:#fff"/><path d="M133.82,133.31s-1.32,5.77-1.84,7.82c-8.86,6-22.72,14.37-36.81,19.52A94.44,94.44,0,0,1,61,166.48c6.76-.14,15.83-2.13,24.24-4.57C110,154.73,133.82,133.31,133.82,133.31Z" style="fill:#005778"/><path d="M192.45,123.22a126.91,126.91,0,0,1-7.75,19.06,45.21,45.21,0,0,1-11.82,14.54,1.67,1.67,0,0,1-.64-1.45c0-1.06,2.31-6.53,3.22-18,2.94-2.21,5.58-4.31,7.92-6.25C186.35,128.62,189.41,125.95,192.45,123.22Z" style="fill:#008e97"/><path d="M56.56,149a9.21,9.21,0,0,1-.29,2.23,15.18,15.18,0,0,1-2.14,4.48A26.91,26.91,0,0,1,52.34,158a13,13,0,0,1-1.75,0c-.72-.07-1.49-.2-1.8-.26h0c-.2-.27,9.28-6.69,6.71-9.81C55.64,147.83,56.51,147.63,56.56,149Z" style="fill:#005778"/><path d="M245.77,78.41h0a10.66,10.66,0,0,1-1.66,1.68,52.42,52.42,0,0,1-7,5,152.14,152.14,0,0,0-20.21,15.27c-.27.25-19.78,18.66-20.27,19.11A132.81,132.81,0,0,1,188,141.3c-4.24,8.59-10.56,14-12.8,15.18-.14.08-1.45.9-2.32.35a45.19,45.19,0,0,0,11.82-14.54,126.91,126.91,0,0,0,7.75-19.07c-3,2.73-6.09,5.4-9.06,7.87-2.34,1.94-5,4-7.92,6.25,0,0-6.32,4.65-9.9,7h0c-2,1.33-11.17,7-16.73,10.07-4.72,2.58-14.6,7.26-14.63,7.27h0c-5.15,4.35-9.18,6.38-10.26,6.1a1.47,1.47,0,0,1-.9-1,43.8,43.8,0,0,0,7.26-5.12,128.21,128.21,0,0,0,16.8-17.6c14.83-18.29,17.19-30.82,27.61-40.56,4.41-4.13,16-10.51,22-12.58l.13-.06c-6.8,3.88-13.69,8.35-18.19,12.64-8.71,8.14-11.69,17.65-20.32,30.64l-.22.34c29.07-22,51.54-47.58,74.76-55.74l2.12-.73.08,0c7.91-2.67,11.1-3.09,11.33-1.6A3.87,3.87,0,0,1,245.77,78.41Z" style="fill:#005778"/><path d="M48.79,157.66h0c-5.86-1.13-12.73-5.12-14.85-6.33.73-.71,2.53-2,5.93-1.78,4.68.29,9.85.67,12.27-.06,2.08-.62,2.47-1.53,3.36-1.65h0C58.07,151,48.59,157.4,48.79,157.66Z" style="fill:#008e97"/><path d="M109.36,107.27c11.07-1.46,14.65,1.06,22.71-1.63,1.59-1.61,3.45-3.29,4.9-4.6a42.41,42.41,0,0,1-5.71,1.46c-3.77.75-6.51.55-14.34,1.58-12.3,1.62-18.05,5.47-19.66,7a9.15,9.15,0,0,0-1.37,1.55,6,6,0,0,0-.64,1.18C97.19,111.42,100.59,108.42,109.36,107.27Z" style="fill:#005778"/><path d="M126.46,157.62c-1.47,3.09-3.53,7-3.53,8.61a1.18,1.18,0,0,0,0,.21c-18.75,7.32-34,7-34.1,7a100,100,0,0,1-46.08-9.27h-.42c-2.42,0-14.4-.19-22.26-3.84-8.6-4-13.55-10.24-15.7-14.95-1.6-3.5-1.68-4.62-1.17-5.08l.14-.11h0a2.32,2.32,0,0,1,.55-.21c.17,1.93,6.65,18.06,27.25,21,5.89.84,7.76.57,8.86.49a50.44,50.44,0,0,1-6.56-7.54c.79.68,1.57,1.33,2.36,2a33.09,33.09,0,0,0,19,10.25h.05l.33.11c2.52.82,17.25,5.5,40.25.11a149.15,149.15,0,0,0,32.67-12.52S127.46,155.53,126.46,157.62Z" style="fill:#005778"/><path d="M249.17,74.91a6.15,6.15,0,0,0-.22-1.48h0c-1.13-3.94-5.15-6.38-10.64-6.38-.58,0-1.18,0-1.76.09-4.2.42-11.67,2.95-13.89,3.72a80.62,80.62,0,0,0-19.93-2.62,71.66,71.66,0,0,0-9.94.7h0l-1.36.18s-.53-1.72.86-5.75a34.8,34.8,0,0,1,1.71-4s-15.16,7.88-17.06,5.37,6.59-22.51,6.59-22.51S168.91,58.46,166,57.74c-1.13-.28-1.23-6.17-1.29-12.49-.07-8.57.22-18.38.22-18.38s-12,29.92-15,29.77c-2.55-.13-6.25-16.11-6.25-16.11s-2.32,13.76-6.5,15.45-14.92-24.06-14.92-24.06-.5,25.76-3.49,26.34-12.5-9-12.5-9,4.46,12.83,2.95,14.52c-.9,1-10.05-4.65-19.58-11.48L79.6,45S85,53.91,89.24,63.23C92.18,69.64,94,75.8,93.19,77c-1.88,2.94-16-1.25-16-1.25s8,7.74,7.51,9.73c-.25,1-8.24.27-16.36-.84C59.72,83.46,51,81.84,51,81.84s28.68,16.67,27.78,19.67c-.71,2.38-18.56.43-18.56.43s15.52,7.09,15.46,9.43-30.38,10-30.38,10,27.46,5.74,28,8.81S62.4,143.08,62.4,143.08s13.22,1.19,13.87,2.92-3.21,8.57-6.57,9.65a38.83,38.83,0,0,1-12.53,2.19q-1,0-1.94-.05c.23-.29.45-.6.65-.89a17.33,17.33,0,0,0,2.43-5.12v0a11.43,11.43,0,0,0,.36-2.75v-.08a3.54,3.54,0,0,0-1-2.47,2.58,2.58,0,0,0-2.92-.53L52.2,147.2a5.43,5.43,0,0,1-.68.25,14.1,14.1,0,0,1-3.73.33c-2.07,0-4.53-.15-6.91-.3,0,0-1.46-.08-1.74-.08a9.78,9.78,0,0,0-5.88,1.73l-.62-.33c-5.81-3.08-12.56-4.33-16.78-5.11l-.94-.17a14.07,14.07,0,0,1-7.42-3.91,6.94,6.94,0,0,0-1.58-1.37,3.83,3.83,0,0,0-3-.2,3.19,3.19,0,0,0-1.67,1.33c-1,1.67,0,4.12,1.22,6.89,1.44,3.14,5.95,11,16.74,16A46.11,46.11,0,0,0,33,165.72a83.33,83.33,0,0,0,9.25.56,88.63,88.63,0,0,0,11.89,4.59,104.27,104.27,0,0,0,30.06,4.78s4.39.06,6.76-.1c.24,1-1.47,4.52-3.53,8.66-2.44,4.91-5.57,10.71-5.57,10.71s5.66-5,10.93-8.71,11.25-6.73,12.65-5c2.65,3.26-.18,16.73-.18,16.73s10.72-9.49,13.21-8.2c1.14.59,1.25,7.68,1.26,15.14,0,8.85-.22,18.24-.22,18.24s14.77-29.88,17.84-29,6.43,14.48,6.43,14.48,5.61-16.6,9-16.19c1.37-.17,4.31,5.21,6.93,10.72,2.87,6,5.32,11.92,5.32,11.92s.06-6.16.49-12.46c.39-5.69,1.11-11.24,2.36-11.55,2.63-.65,10.27,9.59,10.27,9.59s-2.7-14.27-.59-15.48,27.55,20.78,27.55,20.78S188.48,175,190.51,172.63s19.85,2.46,19.85,2.46a71.67,71.67,0,0,1-4.93-6.68c-2.38-3.71-4.35-7.85-3.43-8.84s10.14,0,19.74,1.9c11.07,2.15,18.27,3.68,18.27,3.68s-6.52-3.53-16.14-9.32c-8.33-5-15.65-10.65-15.34-11.56.67-2,20.56-3.86,20.56-3.86s-3.34-2-6.92-4.16c-3.89-2.38-8.05-5.35-8.05-6.43s5-3.3,11.56-5.32c7.88-2.42,15.18-4,15.18-4s-27.11-2.18-28.8-6c-1.15-2.64,1-6.08,2.52-8.31a29.68,29.68,0,0,1,3.78-4.24,149.06,149.06,0,0,1,19.84-15l.62-.39s7-5.13,7.67-5.73a8,8,0,0,0,2.57-4.31A6.23,6.23,0,0,0,249.17,74.91ZM77.86,143.15c-1.93-1-10.88-1.46-10.88-1.46s10.08-6.78,9.85-11.68-16.32-7.41-22.68-8.82c5.61-1.18,23.78-5.29,24.56-8.94S73,106,70.32,104.73c3,0,10.76,1.33,11.8-2.43C83.3,98,64.31,86.74,60,85.18c1,.23,19.06,4.45,25.67,3,4.92-1.07-.82-7.69-1.76-8.47,1.45.71,9.75,2.42,12.12-1.52S90.33,58.58,85.82,51.94c4,4,22.29,17,25,14.79s.64-9.36-.82-11.72c2.95,2.76,5.85,6.45,9.59,6.37,1.88,0,4.24-6.24,4.62-20.25,2.54,7.85,8.6,18.53,13,17.88s6-7.26,6.59-10.07c.51,3,2.85,10.79,5.82,11.07,3.65.57,10.62-15.65,13.16-23,.38,3.62-2.27,22.21,1.66,23.76s10.42-6.28,14.1-10.67c-2.23,4.24-6.6,14.51-4,17s11.6-.12,15.1-3a9.15,9.15,0,0,0-.93,5.49,78.74,78.74,0,0,0-12.38,3.52,61.14,61.14,0,0,0-90.17,74.1A58.07,58.07,0,0,1,76,153.36C78.51,150.39,80.68,144.67,77.86,143.15Zm-38,6.4c4.68.29,9.85.67,12.27-.06,2.08-.62,2.47-1.53,3.36-1.65h0c.14,0,1-.22,1.06,1.15a9.21,9.21,0,0,1-.29,2.23,15.18,15.18,0,0,1-2.14,4.48,26.91,26.91,0,0,1-1.79,2.25,13,13,0,0,1-1.75,0c-.72-.07-1.49-.2-1.8-.26-5.86-1.13-12.73-5.12-14.85-6.33C34.66,150.62,36.46,149.34,39.87,149.55Zm190-28.37c-7.92,1.07-21.77,6.81-19.14,9.89s10.3,7.3,11.39,7.84c-3.66,0-15.67,1.24-17,4.65s17.39,14.82,24.25,17.51c-8.53-2.4-28.88-6.41-30.24-3.67s2.16,11.23,5.38,13.75c-2.35-.71-14.65-4.2-16.62.35-2.17,5,9.85,23.35,11.21,26.77-5.54-5.5-20.71-17.82-22.86-16.41s-1.62,8.27-1.06,11.77c-2.08-2.54-5.66-6.61-8.75-5.39s-2.71,13-2.91,18c-2.55-5.91-6.71-17.8-10.56-17.37s-8.17,8.53-9,11.62c-.59-3.1-3.11-9.91-6.92-9.91s-12.68,18-15.36,23.88c0-4.53,1.07-26.64-1.33-27.74s-10.51,3.94-12.25,6.24c.64-2.9,1.19-12.72-1-13.91s-8.33-1.56-19.48,8.75c1.85-4,4.9-8.26,5.64-12.43a97.94,97.94,0,0,0,13.8-1.66A61.12,61.12,0,0,0,204,124.19a62,62,0,0,0-.49-7.8c2.26-2.13,4.44-4.2,6.46-6.12a9.8,9.8,0,0,0-.68,4.09C209.44,119.51,222.79,120.61,229.89,121.18ZM247,74.3c-2.18-3.41-22.83,3.45-28.71,5.81A234.52,234.52,0,0,0,196.8,90.92c-6.8,3.88-13.69,8.35-18.19,12.64-8.71,8.14-11.69,17.65-20.32,30.64l-.22.34c29.07-22,51.54-47.58,74.76-55.74l2.12-.73.08,0c7.91-2.67,11.1-3.09,11.33-1.6a3.87,3.87,0,0,1-.61,2,10.66,10.66,0,0,1-1.66,1.68,52.42,52.42,0,0,1-7,5,152.13,152.13,0,0,0-20.21,15.27c-.27.25-19.78,18.66-20.27,19.11A132.81,132.81,0,0,1,188,141.3c-4.24,8.59-10.56,14-12.8,15.18-.14.08-1.45.9-2.32.35a1.67,1.67,0,0,1-.64-1.45c0-1.06,2.31-6.53,3.22-18,0,0-6.32,4.65-9.9,7-2,1.33-11.17,7-16.73,10.07-4.72,2.58-14.6,7.26-14.64,7.27-5.15,4.35-9.18,6.38-10.26,6.1a1.47,1.47,0,0,1-.9-1,2.25,2.25,0,0,1-.09-.41c-18.75,7.32-34,7-34.1,7a100,100,0,0,1-46.08-9.28h-.41c-2.42,0-14.4-.19-22.26-3.84-8.6-4-13.55-10.24-15.7-14.94-1.6-3.5-1.68-4.62-1.17-5.08a1.61,1.61,0,0,1,.69-.33c1.08-.31,1.81,1.05,2.76,1.86a15.9,15.9,0,0,0,7.84,3.8c4.45.84,12.76,2.16,19,6.17,5.16,3.1,18,13.61,40.9,4.66,10.54-4.12,20-12.37,33.94-26.21,2.27-2.24,4.53-4.61,6.82-7-.33-1.64-1.22-4.61-3.2-5.84-3.06-1.92-7.71-2-10.78-1.76s-4.68.65-5.73-.19a1.18,1.18,0,0,1-.35-1.22,4,4,0,0,1,.55-1.28l.2-.31A9.15,9.15,0,0,1,97.27,111c1.61-1.49,7.36-5.35,19.66-7,7.83-1,10.57-.83,14.34-1.58A42.53,42.53,0,0,0,137,101c3.36-3,7-6.07,10.87-9a150.7,150.7,0,0,1,12.79-8.72c24.83-15.11,45.07-14.61,62.13-10.18,0,0,9.34-3.36,14-3.83S246.07,70.37,247,74.3Z" style="fill:#fff"/></g></svg>