<svg id="Layer_1" data-name="Layer 1" xmlns="http://www.w3.org/2000/svg" viewBox="0 0 250 250"><title>NE</title><g id="NWE"><path d="M245.78,79.71c-31.2,7.37-32.56-10.7-79.47-14C103.16,61.24,50.09,88.75,7.68,92.28c-9.21.76-8,8.43-1.4,9.74,16,3.73,32.48,3.25,47.57,1.23-.51,1.21-1,3.09.67,4.53,6,5.08,30,5.52,40.56,4.91,3.58-.2,11.23-.93,11.23-.93-2.18.21-5.59,6.85,1.62,8.73,44.53,12.47,65.49,32.6,89.54,64.31,9.77-1.25,19-13,15.05-22l1.95-4.82,7.2-3.33-2.06-16.09,11-5.17s17.1-45.94,18.1-49.28S247.62,79.27,245.78,79.71Z" style="fill:#fff"/><path d="M122.21,86C91.33,87.86,54.28,105.31,7.11,97.53c41.81-5.64,73.68-19.47,112.56-25Z" style="fill:#da2128"/><path d="M127.36,103.88c12.52-1.35,23.56-.92,35.59,6.42-25.1-2.72-37.38,4.29-53,5.85,55.26,14.5,75.49,45.49,89.19,62.66,9.58-4.07,10.1-12.4,7.66-15.36l2.47-5.29.11-3.4,6.6-3.09-2.09-16.45,12.36-5.06,16.38-44.84c-27.76,5.76-36.75-12.19-76.24-14.64A227.36,227.36,0,0,0,122.2,72.2l2.22,13.73c9.09-.31,17.64.84,25.76,4.54a99.55,99.55,0,0,0-24.79,1.64Z" style="fill:#002a5c"/><path d="M125.53,104.07c-17.08,2-36.89,6.79-65.48,1.4,24.64-.67,43.08-8.92,63.38-13Z" style="fill:#da2128"/><path d="M170,141.72c14.94,10.46,22.61,22,30.39,32.19,4-1.65,5.2-6.24,3.9-7.86l-3.77-4.64,4.29.26,2-3.42-5.33-.31-6,1.08,6.09-4.17,4.64.27.17-2.64-4.74-2.27,1.63-1.78L212,149l-2.52-19.51c-3.46-.43-6.37,1.39-7.63,6.4l-15.53-.91c2.18-5,5.59-7.18,12-6.36-3.62-5.08-21.28-5.54-23.78,2.42l13.71,11.23,1.77,10.27-5.63-8.18C179.36,140,174,136.88,170,141.72Z" style="fill:#b0b7bc"/><polygon points="215.94 91.41 217.04 101.21 228.07 105.35 217.72 107.94 218.75 121.15 209.8 109.99 196.42 113.14 204.69 103.51 197.87 94.48 209.29 98.4 215.94 91.41" style="fill:#fff"/></g></svg>