<?xml version="1.0" encoding="utf-8"?>
<!-- Generator: Adobe Illustrator 20.1.0, SVG Export Plug-In . SVG Version: 6.00 Build 0)  -->
<svg version="1.1" id="Layer_1" xmlns="http://www.w3.org/2000/svg" xmlns:xlink="http://www.w3.org/1999/xlink" x="0px" y="0px"
	 viewBox="0 0 76.1 130.6" style="enable-background:new 0 0 76.1 130.6;" xml:space="preserve">
<style type="text/css">
	.st0{fill:#E8E613;}
</style>
<path class="st0" d="M63.2,17.5c-3.2,0.8-8,8.5-8.5,6.2s0.2-9.5-7.5-14c-7.3,4.2-1,5-5.8,7.2C34,1.5,27.5,0,27.5,0S26,3,26.2,7.2
	C23.5,11.5,9,29.8,9.5,35.8S2,47.2,2.2,49.2s-2.2,6-2.2,6S9.8,72.5,10.5,76c6.8,16.2,11.9,23,15.3,26.9c-5.4-0.1-10.3,1.5-12.4,4.6
	c-3.8,5.8-0.1,14.9,8.2,20.3s21.2,2,25-3.8s2.8-11-7.7-17.5c-1.1-0.7-2.3-1.3-3.6-1.8c1.3-1.9,2.8-3.5,4.3-3.6
	C43.5,101,68,75.5,67.3,67.7s7.2-28,8.7-28S66.5,16.8,63.2,17.5z"/>
</svg>
