<svg id="Layer_1" data-name="Layer 1" xmlns="http://www.w3.org/2000/svg" viewBox="0 0 250 250"><title>PHI</title><g id="PHI"><path d="M145.44,52.39,133.38,65c19.77-8.22,62.88-22.32,62.88-22.32L182.44,56.23c37.7-11.16,66.35-16.45,66.35-16.45a301.9,301.9,0,0,1-20.7,38.67c2.4-.26,18.06-2.08,18.06-2.08s-14.1,23.36-30.38,40.2l9.11,2.27s-14.2,20.46-32.94,37.17c-26.95,24-40.82,20.33-40.82,20.33-20,14.49-36,7.15-36,7.15s6.93-17.48-.23-19.34c-6.45-1.68-16.27,3.37-17.49,5.39-1.27,4.41-6.64,15.62-12.18,22.4-10.62,13-22.41,18.31-22.41,18.31a30,30,0,0,1-9.34-21.4,35,35,0,0,1-16.75,9c-7.26,1.55-17.18.29-27.33-8.19-6.82-5.69-8.12-24.82-8.12-24.82a88.58,88.58,0,0,1,18.77-23A16.48,16.48,0,0,1,15,134.69c32.85-14.34,32.87-28,59-44.66C99.76,73.63,115.93,66.09,145.44,52.39Z" style="fill:#fff"/><path d="M129.44,64,119.12,74.81c20.38-9,63.42-23.68,63.42-23.68L170.05,63.36c44.13-13.67,72.12-18.29,72.12-18.29S233,65.45,220.86,82.77c5.89-.57,18.19-2,18.19-2a206.72,206.72,0,0,1-30.46,38c2,.3,10.26,2.18,10.26,2.18a191.37,191.37,0,0,1-30,32.94c-24.31,21.29-35.09,18.77-35.09,18.77a8.06,8.06,0,0,0,.21-2.12,8.32,8.32,0,0,0-.18-1.41c-18.71,17.61-34.3,11.67-34.3,11.67s6.92-16.76-3.7-20.14C107.56,158.07,95,164.8,94,168.41c-1.09,3.92-6.32,14.8-11.5,21.18A65.74,65.74,0,0,1,63.53,205.7s-9-7-5.91-27.32c.69-4.44-.19-6.17-.68-6.92-1.48-2.27-13.05.21-15.87,6.66-2,4.56,9.5,8.41,9.5,8.41A28.86,28.86,0,0,1,36,194.29c-5.83,1.19-14.86.81-24.34-7.4C6,182,4.88,165.6,4.88,165.6a89.52,89.52,0,0,1,20.43-23.66,16.43,16.43,0,0,1-5.2-5.86C47.31,124.37,51,107.8,81.74,89.29A426.39,426.39,0,0,1,129.44,64Z" style="fill:#004c54"/><path d="M201.71,121.15a52.37,52.37,0,0,1,8,2.07c-9.34,15.15-37.27,44.91-52.88,46.13a11.55,11.55,0,0,0-2.41-6.37c-5.85,10.7-23.74,17.27-31.16,15.56,9-33-29.23-20.44-32.17-11.38A66.06,66.06,0,0,1,64.2,201.78s-6.18-7-3.53-22.89c2-11.69-5.44-11.32-5.44-11.32-2.95-.14-14.13,1.21-17.66,9-2.84,6.29,7.12,10.7,7.12,10.7s-14.38,11.48-31-2.75c-4.08-3.49-5.6-18.23-5.6-18.23A87.13,87.13,0,0,1,31,141.47c-4.64-1.78-6.08-4.18-6.08-4.18C47.25,127,56,110,75,97.36c21-13.95,37-20.79,37-20.79L106,84.18S111,82,113.26,80.93c20-9.79,53.78-20.47,53.78-20.47L156.49,70.68A383.06,383.06,0,0,1,196,60c11.73-2.51,36.24-7.67,36.24-7.67a148.37,148.37,0,0,1-18,34.12c7.39-.52,15.35-1,15.35-1S221.05,102.7,201.71,121.15Z"/><path d="M110.86,98.21l-.74.27.67-.24Z" style="fill:#231f20"/><path d="M110,98.52l.12,0Z" style="fill:#231f20"/><path d="M136.33,138.08s-10.69-5.19-27.54.31c0,0,23.24-13.78,52.66-7.92a73.45,73.45,0,0,0-46.42,0,91.84,91.84,0,0,0-9.49,4.2s1.49-1.09,4.28-2.74a127.92,127.92,0,0,1,25.71-14.41c6.5-2.68,19.44-6.13,24.7-6.43,0,0-13.54-2.29-25.89.82,0,0,19.55-7.63,38.52-8.05,6.35-.14,20.89.63,20.89.63-21-6.22-42.7-7.45-57.55-5.17-8.44,2.09-15.1,4.18-15.1,4.18s1.17-.59,3.39-1.54c5.35-3.18,27.31-15,68.14-21.35A109.85,109.85,0,0,0,181,80c-6.52,0-19.36,2.2-19.36,2.2C171,78,188.5,73.87,210.16,71.77c0,0-33.1-3.93-73.17,8.63l-.53.23s4.23-3.06,9-6.23c3.52-2.34,8.61-6,8.61-6s-20.55,4.92-48.39,18.14c-7.85,3.72-12,5.94-12,5.94,1.21-1.39,6.79-6.29,8.14-8-20.66,10.13-28.2,16.83-40.47,29.84C50.4,125.94,50.9,128,34.28,136.94a28.22,28.22,0,0,0,24.64-3.05,34.71,34.71,0,0,0,6.09-5.4c4.39-5.09,2.94-10.31,8.76-14.06-.83,1.94-2.2,4.39-2.32,6.92,2.8-3.85,8.33-8.93,14.48-12.6,15.65-9.33,26-10.94,26-10.94l-1.18.42c-21.39,8.89-24.87,20.51-25,21.73-.23,2.62,7.73-3.25,14.24-4a27.56,27.56,0,0,0-15.57,15c-1.21,2.85-1.57,6.09-5,8.63A14.59,14.59,0,0,1,75.64,142c-4.5,2-7.6,1-8.66.3a3.63,3.63,0,0,1-1-1.13,10.2,10.2,0,0,0,7.84-1.62,11.44,11.44,0,0,0,4.28-4.61h0a5,5,0,0,0,.05-4.9,4.3,4.3,0,0,0-3.31-2,18.68,18.68,0,0,1,3.18-5,34.33,34.33,0,0,0-6.32,6.29,4.59,4.59,0,0,1,3.54,2.09c1.44,2.4.1,5.84-3,7.68s-6.77,1.4-8.21-1a4,4,0,0,1-.41-1l-.49.28c-1,.5-2.92,1.33-2.92,1.33a8.18,8.18,0,0,0,2.93.16c.26,3.39,2.37,8.84,14.31,5.76-3.41,3.35-11.62,3.13-16.59.53.68.51,1.46,1,2.39,1.62,15,9.29,32.19.54,36.4-1.88a32.62,32.62,0,0,1,3.12-1.77A35.27,35.27,0,0,0,95.43,153C100.67,146.34,115.9,135.6,136.33,138.08Z" style="fill:#fff"/><path d="M81.62,123.33c.57,2.21,4.41-.07,4.41-.07s-5.18,4.39-7.26,9.13a5.61,5.61,0,0,1-.68,2.55,4.6,4.6,0,0,0,1.47.15A8.81,8.81,0,0,0,82.47,134a8.07,8.07,0,0,1-3,5.53c3.38-2.54,3.75-5.78,5-8.63a27.56,27.56,0,0,1,15.57-15c-6.51.79-14.47,6.66-14.24,4,.11-1.22,3.6-12.84,25-21.73l-.79.28C90.4,105.84,80.09,117.45,81.62,123.33Z" style="fill:#bbc4ca"/><path d="M73.46,132.3c1,1.7,0,4.16-2.26,5.52s-4.93,1.07-5.94-.62a2.74,2.74,0,0,1-.31-.83,14.73,14.73,0,0,1-1.33.84,4,4,0,0,0,.41,1c1.44,2.39,5.11,2.84,8.21,1s4.43-5.28,3-7.68a4.59,4.59,0,0,0-3.54-2.09l-1.16,1.45A3.33,3.33,0,0,1,73.46,132.3Z" style="fill:#004c54"/><path d="M71.2,137.82c2.26-1.35,3.28-3.82,2.26-5.52a3.33,3.33,0,0,0-2.93-1.46,39.32,39.32,0,0,1-3.1,3.43,3.4,3.4,0,0,0,1.34,3.07,3.77,3.77,0,0,1-2.22-.53,2.24,2.24,0,0,1-.8-1.05c-.26.21-.53.42-.81.61a2.71,2.71,0,0,0,.31.83C66.28,138.89,68.94,139.17,71.2,137.82Z"/><path d="M66.55,136.81a3.76,3.76,0,0,0,2.22.53,3.4,3.4,0,0,1-1.34-3.07,22.25,22.25,0,0,1-1.68,1.48A2.25,2.25,0,0,0,66.55,136.81Z" style="fill:#fff"/><path d="M193.76,104.53s-14.54-.77-20.89-.63c-19,.42-38.53,8.05-38.53,8.05,12.35-3.11,25.89-.82,25.89-.82-5.26.3-18.21,3.76-24.7,6.43A128,128,0,0,0,109.82,132c11-6.54,42.4-21.92,82.22-13.44,0,0,2.6-2,9.53-9.6,7.35-8.06,8.91-13,8.91-13s-33.8-3.63-58.27.14c-5.28.81-11,2.06-16,3.31C151.06,97.08,172.79,98.3,193.76,104.53Z" style="fill:#bbc4ca"/><path d="M115.76,144.66c27.63-6.85,46.83,1.46,49.14,10.18l.27-.14c1.12-.61,5.41-2.44,11.87-8.8,6.79-6.68,11-12,12.72-15.64-28.26-14.17-59.45-5.64-74.73.26a73.45,73.45,0,0,1,46.42,0c-29.42-5.86-52.66,7.92-52.66,7.92,16.85-5.5,27.54-.31,27.54-.31-20.43-2.48-35.65,8.27-40.9,15-.4.82-.79,1.68-1.12,2.57C99,151.16,104.09,147.55,115.76,144.66Z" style="fill:#bbc4ca"/><path d="M210.16,71.78C188.5,73.87,171,78,161.68,82.23c0,0,12.84-2.2,19.36-2.2a109.85,109.85,0,0,1,11.6.62C151.82,87,129.86,98.82,124.5,102a176.41,176.41,0,0,1,34-10.06c15.86-3.14,34.3-3.92,41.72-4.66a62.77,62.77,0,0,0,14.74-23.13s-18.43,1.49-39.35,5.37c-21.75,4-35.81,9.71-38.62,10.9C177.06,67.85,210.16,71.78,210.16,71.78Z" style="fill:#bbc4ca"/><path d="M100.21,155.73s7-5.24,18.78-3.34c17.48,2.81,17,13.82,17,13.82s7.87-3.38,11.85-10.31A28.51,28.51,0,0,0,134,149.62C110.68,145.51,100.21,155.73,100.21,155.73Z" style="fill:#bbc4ca"/><path d="M52.43,143a27,27,0,0,1-13.33.13c-3.62,2.5-16.67,8.08-25,22.13.43,4.76.92,10.85,2.88,14.19,8,12.6,21.92,7.94,21.92,7.94S17.77,178,40.4,164.32c7.23-4.37,27.22-7.65,39.14-3.82,1,.38,2.27,1.27,2.19,1.5-1.24,6.07-6.24,23.07-14.54,27.9-4.59-6.7,7.52-22.08-4.83-22.67a16,16,0,0,1,1.75,11.16c-.58,2.81-2.49,10.3.92,18.07,0,0,18.77-11.23,24.34-37.14a29.82,29.82,0,0,1,2.32-6.67C67.57,162.14,52.43,143,52.43,143Zm-7.25,8.25c-1.73.51-5.47,1-3.69-1.62,0,0,2.25-1.21,5.25-2.77,1.29,1.06,2.63,1.8,6.15,2.13Z" style="fill:#bbc4ca"/><path d="M41.49,149.66c-1.77,2.66,2,2.13,3.69,1.62L52.89,149c-3.51-.34-4.86-1.07-6.15-2.13C43.74,148.45,41.49,149.66,41.49,149.66Z"/></g></svg>