<svg id="Layer_1" data-name="Layer 1" xmlns="http://www.w3.org/2000/svg" viewBox="0 0 250 250"><title>SD</title><g id="SD"><path d="M123.41,52.84c-2.32,0-4.72.05-7.14.15l-4.83.2,3,3.77,3.41,4.24c-1.08,0-2.18,0-3.28,0a143.2,143.2,0,0,0-49.33,9A111.75,111.75,0,0,0,40,83.42a90.76,90.76,0,0,0-21.32,21.12L16,108.24l4.54.17c1.19,0,2.23.06,3.26.06h1.41A126.43,126.43,0,0,0,9.63,135,104.51,104.51,0,0,0,2.2,159.53a75.4,75.4,0,0,0,.33,27.64l1.35,6.51,3.18-5.84C19.13,165.77,33,149,49.4,136.59c14.12-10.68,27.69-16.32,39.65-21.31l2.5-1,2.47-1-1.26-2.37a39,39,0,0,0-4.07-5.66c2.61-.11,5.23-.16,7.81-.16,35.78,0,70.93,10.42,104.47,31l5.34,3.27-1.71-6c-.68-2.37-1.31-4.47-1.93-6.36,18.25,17.35,33.47,42.09,41.13,60.72l3.93,9.55.76-10.3a142.66,142.66,0,0,0-2.66-40.76c-3.34-15.18-9.29-28.34-17.68-39.12a114.74,114.74,0,0,0-16.22-18.84,137,137,0,0,0-33.3-22.81l-.08,0-.09,0c-.87-.35-2-.86-3.23-1.44a110.21,110.21,0,0,0-18.48-6.9,128.39,128.39,0,0,0-33.33-4.09" style="fill:#fff"/><path d="M116.37,55.43q3.64-.15,7-.15c31.94,0,47.53,9.59,54.14,12.24,28.46,14,42.56,32.05,48.63,40.89,15.12,19.4,20.29,44.49,20.3,67.07,0,3.81-.15,7.56-.42,11.19-9.15-22.27-28-51.25-49.37-68.26.35.73.69,1.47,1,2.22s.77,1.81,1.14,2.76c1.19,3.08,2.25,6.45,3.41,10.52-31.12-19.08-66.72-31.35-105.75-31.35q-6.41,0-12.94.45s.68.73,1.63,1.82l.43.5a45.21,45.21,0,0,1,5,6.65C66.53,122.06,33.47,134.4,4.93,186.67a68.4,68.4,0,0,1-1.4-14c0-28.46,16.67-54.31,24.84-64.25l.46-.56c.59-.7,1.14-1.32,1.61-1.83-1.21,0-2.15-.07-3-.07l-1.81,0-1.83,0c-.87,0-1.88,0-3.17-.06C44.25,72.94,87,63.6,114.59,63.6c1.84,0,3.61,0,5.31.12l.86,0c.83,0,1.65.1,2.44.16Z" style="fill:#002a5c"/><path d="M127.85,59.73l-2.8.06,5.68,8.13C117.36,66.82,66,65.15,31.46,99.52L29,102l9.89.31-1.71,2.11c-10.36,12.56-24.55,29.77-29.43,63l-.94,6.44,3.66-5.38c18.64-27.38,42.79-46.64,71.82-57.24l1.85-.68L83,108.93a50.1,50.1,0,0,0-8.68-9.23c50.82-5.14,87.58,8.64,116.85,23l3.56,1.75-1.52-3.66a99.89,99.89,0,0,0-8.1-15.74c22,13,37.41,32.19,53.28,56.74l3.27,5-.52-6c-5.76-66.44-70.64-101.95-113.3-101.09" style="fill:#0080c6"/><path d="M135,68.87l-4.24-6.08c20.63.4,45.11,9.39,64.66,24,16.7,12.45,37,34.19,42,68.15-16.21-24.32-32.45-43.2-56.25-55.63l-5.12-2.67,3.2,4.85a114.51,114.51,0,0,1,9.56,16.8C160.53,104.78,122,91,70.47,97.05l-3.42.41,4.09,3.46a54.64,54.64,0,0,1,8.25,8.26c-26.88,10.24-49.57,27.89-67.59,52.44,5.52-28.4,18.24-43.85,27.72-55.33l5.54-6.82L42,99.39l-5.78-.19C75,63.52,133,71.11,133.59,71.2l3.45.53Z" style="fill:#ffc20e"/></g></svg>