<svg id="Layer_1" data-name="Layer 1" xmlns="http://www.w3.org/2000/svg" viewBox="0 0 250 250"><title>SF</title><g id="SF"><path d="M125.67,199.43c42.62,0,84.61-14.45,107-36.82C244,151.25,250,138.13,250,124.67s-5.92-26.36-17.13-37.56C210.68,64.91,168.6,50.57,125.67,50.57,95.6,50.57,64.93,57.65,41.5,70,14.74,84.08,0,103.5,0,124.67c0,13.27,5.95,26.23,17.2,37.48s27.58,20.7,47.25,27.35A193.31,193.31,0,0,0,125.67,199.43Z" style="fill:#fff"/><path d="M43.35,73.51C18,86.89,4,105.05,4,124.67c0,12.19,5.54,24.18,16,34.67,10.81,10.81,26.62,19.94,45.71,26.4a189.39,189.39,0,0,0,59.94,9.71c41.61,0,82.5-14,104.16-35.65C240.42,149.2,246,137.05,246,124.67s-5.52-24.3-16-34.74C208.57,68.44,167.6,54.56,125.67,54.56,96.23,54.56,66.23,61.47,43.35,73.51Z"/><path d="M125.59,188.39c36.73,0,71.55-12,90.84-31.29,9.73-9.74,14.88-20.85,14.88-32.14s-5.15-22.4-14.88-32.14c-19.3-19.3-54.11-31.29-90.84-31.29-27,0-53.83,6.66-73.67,18.27C31.25,91.9,19.87,107.94,19.87,125c0,11.29,5.15,22.4,14.88,32.14C54,176.4,88.86,188.39,125.59,188.39Z" style="fill:#c6a876"/><path d="M125.78,186.13c53.85,0,97.5-27.9,97.5-61.51s-43.65-60.86-97.5-60.86S28.28,91,28.28,124.62,71.94,186.13,125.78,186.13Z" style="fill:#b9083e"/><path d="M202,117h-.27v-2.22H163.09a20.86,20.86,0,0,0-6.9-11.54A26,26,0,0,0,141.74,95l-2.41-.5c-5.58-1.17-10-2.1-27.74-2,0,0-3.41-.12-6.73-.56a15,15,0,0,1-2.21-.74c.25-1.48,2.94-3.51,6-3.9.32-.06,19.52-3.59,39.28,9.21l.48.31h13V76.91h-2.22V74.69H141.36l-3,2.3c-5.13-1.29-30.27-6.79-52,2.71C77.26,83.47,71.6,90.58,72,97.8a12.72,12.72,0,0,0,5,9.28c2.22,2.77,5.7,4.93,10.24,6.24a75.33,75.33,0,0,0,17.14,2.92v9.06h2.22v2.22h6.78c2.81,0,3.53,1.55,3.7,2.13-8.65-.56-21.8-3-31.49-12l-.36-.39h-.07q-.8-.77-1.57-1.59l-.58-.63H73.23v28.29h2.22v2.22h8c1.17.09,4.86-.33,7.41-7.78a92.29,92.29,0,0,0,26.87,4.85v17.6c-.44,5.91-13.46,7.76-18,7.94l-1.88.07V177H100v2.22h57.17v-8.37l-1.46-.39-.76-.21v-1.91l-1.78-.15a30.78,30.78,0,0,1-7.6-1.52c-3.6-2-4.21-3.65-4.29-3.91v-9.39h16.75a9.74,9.74,0,0,1,4.57,2.05,22.14,22.14,0,0,1,3.53,6.42l.43,1.38h1.49c.2.51.3.82.31.84l.43,1.38h9v-34h-2.22v-2.22h-9l-.32,1.56c-2.35,11.31-15.43,11.15-27.06,9.45a63.39,63.39,0,0,0,6.85-2.28c6.23-2.48,10.9-5.84,13.82-9.78H185a8.51,8.51,0,0,1,4.49,1.31c2.63,3.86,2.37,9.55,2.37,9.61l-.11,2.06h2.34c0,.09,0,.15,0,.16l-.11,2.06h10V117h-2Z"/><path d="M162,123.95h20.81c11.88.38,11,15.21,11,15.21h6V116.71H163.91S163.82,121.73,162,123.95Z" style="fill:#fff"/><path d="M119.64,143.12v17.24c-.62,9-19.87,9.79-19.87,9.79v4.92H153v-4.92c-15.82-1.37-15.9-9.44-15.9-9.44V149.19h18.92c8.65,1.24,12,12.07,12,12.07h5.61V131.13h-5.42c-3.77,18.15-31.59,10-33.65,10.44A63.17,63.17,0,0,1,119.64,143.12Z" style="fill:#fff"/><path d="M136.26,113.46c7.23,2.12,7.9,7.63,3.67,12.8-5.42,5.11-13.69,5.33-13.69,5.33s-27.85,3-44.11-14.57H75.19V141.4h6.08S85,142,87.36,133c0,0,28.6,11.64,55.81.84,26.35-10.47,16.32-33.39-1.81-37-7-1.39-9.75-2.58-29.76-2.47,0,0-3.61-.11-7.13-.59-11-2.76-4.75-9.89,1.71-10.72,0,0,19.87-3.92,40.59,9.51h10.46v-16H142l-3.23,2.47s-28.2-7.88-51.62,2.38C71.43,88,68.34,104.27,85.53,109.23c15.14,4.36,24.8,2.54,40.14,3.12C130,112.51,133.68,112.68,136.26,113.46Z" style="fill:#fff"/><path d="M113.53,123.35h-7.22v-6.47c5.6,0,17,0,25.11,0s9.22,4.7,5.79,7.88c-3.23,3-10,5.13-18,3.68C119.2,128.44,118.53,123.35,113.53,123.35Z" style="fill:#fff"/></g></svg>