<svg id="Layer_1" data-name="Layer 1" xmlns="http://www.w3.org/2000/svg" viewBox="0 0 250 250"><title>TEN</title><g id="TEN"><path d="M81.62,139.47a41.39,41.39,0,0,0,4.57,15c4.09,7.89,12.66,18.4,30.32,24.35A71.68,71.68,0,0,0,126.35,191,71,71,0,1,0,187.94,70.68a48.6,48.6,0,0,0-44.08-11.26l-1.45.43c-7.14,2.37-10.84-.35-13.23-2.22a68.8,68.8,0,0,0-8.34-5.76c-9.48-5.33-23-5.52-34.31-.95-7.48,2.54-11.25-.75-13.48-2.29C58.24,38.41,40,36,20.72,40.22c-13,2.87-18.21,5.51-18.21,5.51a84.7,84.7,0,0,1,18.22,5.18c7.64,3.19,13.72,7.29,18.32,14.65,0,0,2.9,4.25,1,5.51-2.1,1.4-4.3-2-4.3-2a64,64,0,0,0,.09,6.8c1.07,19.63,5.07,31.43,14.54,40.44,4.31,4.1,11.58,8.09,22.81,12.5C78.34,130.84,81.11,133.47,81.62,139.47Z" style="fill:#fff"/><path d="M223.42,93.7A66,66,0,0,0,185.88,75a44.34,44.34,0,0,0-40.76-11.18c4.73.7,7.87,3.52,6.66,6.64-.8,2.06-4.24,2.18-5.81,2.19-5,.05-9.29-3-12.72-5.8s-9.4-8.06-14.62-11C108.9,50.34,93.46,51,82.29,58.16,89,58.61,97,60.53,101.8,64.5c2.68,2.22,6.09,6.67,3.3,8.76-2.45,1.83-8.48.89-11.54-.89A48.94,48.94,0,0,1,81.67,62.18C64,41.35,38.93,40.18,18.27,45.29c13.56,3.81,22.61,11.53,28.2,24.85s9.94,19,19.14,22.59C71.38,95,72.94,95.4,72.49,98c-.66,3.74-7.49,1.95-12.71-.09-6.35-2.48-14.71-9.32-19.69-22.16C41,92.32,44.16,104.1,53.53,113c4,3.78,11.28,7.7,22.71,12.1,7.3,2.81,13.07,4.51,18.51,9.38,6.34,5.68,3.64,9.43-.57,8.72-4.76-.8-8.15-5.66-8.15-5.66S86,164.6,119.48,175a66.79,66.79,0,0,0,10.07,12.83A66.47,66.47,0,1,0,223.42,93.7Z" style="fill:#002a5c"/><path d="M219.88,97.06a60.93,60.93,0,0,0-36.6-17.6c-11.89-11.85-23.76-11.3-23.76-11.3,5.21,3.27,2.52,10.53-9.06,12.13s-26-2.3-33.14-10.57c-7.31-8.52-12.83-8.91-12.83-8.91,6.34,4,6.79,8.72,10.65,16s11.78,9.85,18.68,10.3c7.27.48,7.45,3.77,1.59,7.25-6.4,3.79-12.06.21-16.18-3.85-6.5-6.41-13-7.64-21.92-7.52s-20.77,1.29-30.75-2.44S50,63.65,50,63.65c4.94,17.44,15.91,25.71,26.08,27.7,13.45,2.64,22.75,5.84,28.43,10.44A30.7,30.7,0,0,1,115.1,117c1.61,4.78,1.9,11.13.31,11.51-1.85.44-2.24-2.11-4.42-6.57-2.42-4.92-5.3-8.78-11.11-11.88-7.87-4.2-15.58-4-23.44-3.85a53,53,0,0,1-9.88-.63s.26.84,10.4,3.12c11.3,2.54,22.24,8.91,29.51,24.44,6.19,13.21,3,22.51-10.75,18.3,0,0,6.4,14.24,27.33,19.31a61.72,61.72,0,0,0,10,13.13,61.38,61.38,0,0,0,86.8-86.8Z" style="fill:#4495d1"/><path d="M176.48,82.08a58.38,58.38,0,1,1-41.28,17.1A58,58,0,0,1,176.48,82.08Z" style="fill:#fff"/><path d="M176.55,193.81a53.34,53.34,0,1,1,53.27-53.42A53.34,53.34,0,0,1,176.55,193.81Z" style="fill:#002a5c"/><path d="M163.43,129.67H147.62L142.42,139l-7-19.87h82l-7,19.87-5.17-9.29H189.69l-13.16,57.58Z" style="fill:#fff"/><polygon points="217.4 119.1 135.41 119.1 136.74 122.86 175.83 122.86 163.43 129.67 176.53 187.25 176.53 122.86 216.07 122.86 217.4 119.1" style="fill:#bbc4ca"/><path d="M136.23,73c-11.89-.34-16.74-5.05-24.12-11A24.87,24.87,0,0,0,93,56.8c6-3.44,17.81-3.58,26.31,3.88C127,67.34,130.68,71,136.23,73Z" style="fill:#da2128"/><path d="M34.75,46.83S45.87,46.57,55.59,64c8.17,14.67,23.76,17.6,35.17,14.37a29.38,29.38,0,0,1-23.25-15C59.11,48.53,48,44.38,34.75,46.83Z" style="fill:#da2128"/><path d="M97.72,131.31S96.15,115.1,73,110.39c-23.26-4.73-26.26-16.84-26.26-16.84S46.94,111,67,116.38C80.93,120.12,91.19,122.28,97.72,131.31Z" style="fill:#da2128"/><polygon points="184.49 113.97 181.35 104.61 189.3 98.85 179.43 98.85 176.33 89.5 173.38 98.85 163.51 98.97 171.55 104.69 168.55 114.09 176.48 108.21 184.49 113.97" style="fill:#da2128"/><polygon points="149.29 147.03 142.76 154.42 133.73 150.46 138.75 158.96 132.19 166.32 141.81 164.18 146.8 172.69 147.73 162.87 157.37 160.77 148.32 156.85 149.29 147.03" style="fill:#da2128"/><polygon points="195.52 160.98 205.19 162.94 206.28 172.74 211.13 164.15 220.79 166.15 214.11 158.88 219 150.31 210.03 154.41 203.39 147.12 204.51 156.92 195.52 160.98" style="fill:#da2128"/></g></svg>