<?xml version="1.0" encoding="utf-8"?>
<!-- Generator: Adobe Illustrator 20.1.0, SVG Export Plug-In . SVG Version: 6.00 Build 0)  -->
<svg version="1.1" id="Layer_1" xmlns="http://www.w3.org/2000/svg" xmlns:xlink="http://www.w3.org/1999/xlink" x="0px" y="0px"
	 viewBox="0 0 434.3 434.3" style="enable-background:new 0 0 434.3 434.3;" xml:space="preserve">
<style type="text/css">
	.st0{fill:#FFFFFF;}
</style>
<path class="st0" d="M116.8,283.2c-5.2-33.4,0.1-70.7,14.6-102.5c28.8-63.2,96.2-107.3,138.9-92.3l-46.1,101l-12.5-5.7
	c-2.7-1.2-5.7-0.4-6.7,1.8c-1,2.2,0.4,5,3.1,6.2l12.5,5.7l-3.6,8l-12.5-5.7c-2.7-1.2-5.7-0.4-6.7,1.8c-1,2.2,0.4,5,3.1,6.2l12.5,5.7
	l-3.7,8l-12.5-5.7c-2.7-1.2-5.7-0.4-6.7,1.8c-1,2.2,0.4,5,3.1,6.2l12.5,5.7l-3.7,8l-12.5-5.7c-2.7-1.2-5.7-0.5-6.7,1.8
	c-1,2.2,0.4,5,3.1,6.2l12.5,5.7l-46.1,101C134.6,335.8,121.6,313.3,116.8,283.2z"/>
<path class="st0" d="M299.5,257.4c-28.9,63.2-96.2,107.2-138.9,92.3l46.1-101l12.5,5.7c2.7,1.2,5.7,0.4,6.7-1.8c1-2.2-0.4-5-3.1-6.2
	l-12.5-5.7l3.6-8l12.5,5.7c2.7,1.2,5.6,0.4,6.7-1.7c1-2.2-0.4-5-3.1-6.2l-12.5-5.7l3.6-8l12.5,5.7c2.7,1.2,5.7,0.4,6.7-1.8
	c1-2.2-0.4-5-3.1-6.2l-12.5-5.7l3.6-8l12.5,5.7c2.7,1.2,5.7,0.4,6.7-1.8c1-2.2-0.4-5-3.1-6.2l-12.5-5.7l46.1-101
	C317.4,114.5,328.3,194.2,299.5,257.4z"/>
</svg>
