<?xml version="1.0" encoding="utf-8"?>
<!-- Generator: Adobe Illustrator 20.1.0, SVG Export Plug-In . SVG Version: 6.00 Build 0)  -->
<svg version="1.1" id="Layer_1" xmlns="http://www.w3.org/2000/svg" xmlns:xlink="http://www.w3.org/1999/xlink" x="0px" y="0px"
	 viewBox="0 0 434.333 434.333" style="enable-background:new 0 0 434.333 434.333;" xml:space="preserve">
<g>
	<path style="fill:#231F20;stroke:#FFFFFF;stroke-miterlimit:10;" d="M217.167,0.5C97.505,0.5,0.5,97.505,0.5,217.167
		s97.005,216.667,216.667,216.667s216.667-97.005,216.667-216.667S336.829,0.5,217.167,0.5z M116.838,283.163
		c-5.233-33.367,0.079-70.686,14.564-102.469c28.845-63.209,96.187-107.291,138.908-92.324l-46.069,100.973l-12.53-5.724
		c-2.691-1.228-5.696-0.426-6.688,1.766c-1.017,2.21,0.36,4.982,3.055,6.202l12.545,5.718l-3.644,7.985l-12.544-5.727
		c-2.688-1.22-5.67-0.447-6.706,1.764c-1.007,2.189,0.374,4.981,3.077,6.218l12.537,5.708l-3.651,7.988l-12.547-5.722
		c-2.693-1.222-5.687-0.429-6.683,1.778c-1.005,2.219,0.364,4.967,3.072,6.193l12.524,5.702l-3.66,8.014l-12.498-5.735
		c-2.703-1.25-5.682-0.456-6.71,1.759c-0.983,2.2,0.377,4.967,3.092,6.219l12.503,5.705L152.713,346.13
		C134.573,335.833,121.573,313.287,116.838,283.163z M299.47,257.357c-28.866,63.178-96.193,107.248-138.897,92.343l46.058-100.982
		l12.536,5.73c2.683,1.225,5.659,0.429,6.687-1.779c1.017-2.184-0.385-4.957-3.07-6.192l-12.521-5.707l3.627-8.019l12.549,5.73
		c2.668,1.228,5.64,0.449,6.67-1.735c1.004-2.213-0.376-5.028-3.055-6.218l-12.513-5.745l3.635-7.954l12.522,5.72
		c2.681,1.223,5.663,0.434,6.689-1.769c1.014-2.205-0.352-5-3.055-6.224l-12.513-5.71l3.613-7.99l12.541,5.748
		c2.684,1.202,5.689,0.442,6.682-1.753c0.979-2.24-0.357-4.976-3.052-6.216l-12.518-5.735l46.068-100.968
		C317.427,114.455,328.278,194.173,299.47,257.357z"/>
</g>
</svg>
