<?xml version="1.0" encoding="utf-8"?>
<!-- Generator: Adobe Illustrator 20.1.0, SVG Export Plug-In . SVG Version: 6.00 Build 0)  -->
<svg version="1.1" id="Layer_1" xmlns="http://www.w3.org/2000/svg" xmlns:xlink="http://www.w3.org/1999/xlink" x="0px" y="0px"
	 viewBox="0 0 424.8 424.8" style="enable-background:new 0 0 424.8 424.8;" xml:space="preserve">
<style type="text/css">
	.st0{fill:#050505;}
	.st1{fill:#ED1C24;}
</style>
<path class="st0" d="M420.8,71.5L353.2,4L212.4,144.9L71.5,4L4,71.5l140.9,140.9L4,353.2l67.5,67.6l140.9-140.9l140.8,140.9
	l67.6-67.6L279.9,212.4L420.8,71.5z"/>
<path class="st0" d="M406.6,353.2l-53.4,53.4L212.4,265.7L71.5,406.6l-53.3-53.4l140.9-140.8L18.2,71.5l53.3-53.3l140.9,140.9
	L353.2,18.2l53.4,53.3L265.7,212.4L406.6,353.2z"/>
<polygon class="st1" points="406.6,71.5 353.2,18.2 212.4,159.1 71.5,18.2 18.2,71.5 159.1,212.4 18.2,353.2 71.5,406.6 
	212.4,265.7 353.2,406.6 406.6,353.2 265.7,212.4 "/>
</svg>
